<svg xmlns="http://www.w3.org/2000/svg" width="504" height="512"><path d="M240.5 23.637c-63.535 3.649-120.406 29.377-163.549 73.989C40.887 134.919 18.369 180.662 10.313 233c-2.479 16.104-2.476 52.936.006 69 8.548 55.322 33.759 104.176 73.186 141.818 61.768 58.974 149.246 81.245 232.288 59.139 67.486-17.966 125.291-65.968 155.747-129.334 11.274-23.458 18.133-45.582 22.05-71.123 2.545-16.599 2.588-53.183.081-69.5-4.109-26.745-11.498-50.236-23.292-74.047-36.161-73.009-106.855-123.454-186.88-133.351-12.882-1.594-33.254-2.524-42.999-1.965M113.174 140.314c-2.683 2.856-2.786 6.707-.264 9.825 1.851 2.289 2.427 2.371 18.982 2.677l17.073.315 4.403 13.685c2.422 7.526 15.535 48.334 29.139 90.684 15.09 46.976 25.478 77.78 26.641 79 1.874 1.965 3.21 2 76.968 2h75.061l1.911-2.361c2.261-2.792 2.474-6.988.493-9.698-1.376-1.882-3.599-1.956-72.75-2.441l-71.331-.5-5.068-15.5-5.067-15.5 72.067-.5 72.068-.5 4.663-2.741c2.565-1.508 5.556-4.208 6.647-6 2.884-4.737 24.583-93.046 23.811-96.906-.823-4.113-4.128-8.527-7.95-10.618-2.934-1.606-10.892-1.772-106.649-2.235l-103.478-.5-4.826-15.481c-2.654-8.515-5.547-16.277-6.427-17.25-1.435-1.586-3.792-1.769-22.772-1.769-20.836 0-21.205.037-23.345 2.314m161.461 47.441c-93.497.241-98.84.35-98.389 2 .262.96 6.696 20.983 14.299 44.495L204.368 277h147.477l1.049-3.25c1.746-5.412 21.157-85.116 20.872-85.703-.146-.301-44.755-.432-99.131-.292M234.5 366.66c-13.048 3.069-19.945 11.058-19.886 23.035.025 5.085.559 7.051 2.985 10.974 7.434 12.025 24.651 15.002 35.844 6.197 10.234-8.05 10.675-24.784.899-34.063-4.626-4.39-14.413-7.42-19.842-6.143m94 .269c-14.861 3.586-22.44 19.517-15.616 32.824 9.678 18.873 39.573 14.997 44.013-5.707 1.161-5.413-.228-12.85-3.266-17.486-2.666-4.069-9.257-8.314-14.731-9.488-5.514-1.183-6.062-1.19-10.4-.143" fill="undefined" fill-rule="evenodd"/></svg>